<?xml version="1.0" encoding="UTF-8"?>
<svg version="1.1" viewBox="0 0 24 24" xmlns="http://www.w3.org/2000/svg" xmlns:xlink="http://www.w3.org/1999/xlink">
    <!--Generated by IJSVG (https://github.com/iconjar/IJSVG)-->
    <g stroke-linecap="round" stroke-width="1" stroke="#fff" fill="none" stroke-linejoin="round">
        <path d="M16.5,23.5h-9l-1,-6h11Z"></path>
        <path d="M8.5,17.5v-6c-0.5,0 -3.5,0 -3.5,0c0,0 -1.5,0 -1.5,-1.5c0,-1.5 0,-2.5 0,-3c0,0 0,-1.5 1.5,-1.5c1.5,0 1.5,1.5 1.5,1.5v1.5c0,0.5 0.5,1 1,1c0.5,0 1,0 1,0c0,0 0,-2.5 0,-3c0,-0.5 0.5,-3.5 3.5,-3.5c3,0 3.5,3 3.5,3.5c0,0.5 0,6 0,6c0,0 1,0 2,0c1.5,0 0.5,-2 2,-2c1,0 1,1 1,1.5c0,1 0,0.5 0,1c0,0.5 -0.5,1.5 -1.5,1.5c-1,0 -3.5,0 -3.5,0v3"></path>
        <path d="M19.5,9v1.5"></path>
        <path d="M21.5,10l-1.1,1.1"></path>
        <path d="M22,12h-1.5"></path>
        <path d="M17.5,10l1.11,1.11"></path>
        <path d="M11.5,0.5v2.5"></path>
        <path d="M16,2l-1.5,2"></path>
        <path d="M8,2l1.5,2"></path>
        <path d="M17.5,5.5h-2.19"></path>
        <path d="M5,4v1.5"></path>
        <path d="M7,4.5l-1.12,1.24"></path>
        <path d="M2.88,4.5l1.32,1.2"></path>
        <path d="M6.5,14.5h2"></path>
    </g>
    <path fill="none" d="M0,0h24v24h-24Z"></path>
</svg>