<?xml version="1.0" encoding="UTF-8"?>
<svg version="1.1" viewBox="0 0 24 24" xmlns="http://www.w3.org/2000/svg" xmlns:xlink="http://www.w3.org/1999/xlink">
    <!--Generated by IJSVG (https://github.com/iconjar/IJSVG)-->
    <g stroke-width="1" stroke="#fff" fill="none" stroke-linejoin="round">
        <path d="M13.2678,1.23323c0.976311,0.976311 0.976311,2.55922 0,3.53553c-0.976311,0.976311 -2.55922,0.976311 -3.53553,0c-0.976311,-0.976311 -0.976311,-2.55922 0,-3.53553c0.976311,-0.976311 2.55922,-0.976311 3.53553,-4.44089e-16"></path>
        <path d="M13.2678,19.2332c0.976311,0.976311 0.976311,2.55922 0,3.53553c-0.976311,0.976311 -2.55922,0.976311 -3.53553,0c-0.976311,-0.976311 -0.976311,-2.55922 0,-3.53553c0.976311,-0.976311 2.55922,-0.976311 3.53553,0"></path>
        <path d="M21.7678,19.2332c0.976311,0.976311 0.976311,2.55922 0,3.53553c-0.976311,0.976311 -2.55922,0.976311 -3.53553,0c-0.976311,-0.976311 -0.976311,-2.55922 0,-3.53553c0.976311,-0.976311 2.55922,-0.976311 3.53553,0"></path>
        <path d="M4.76777,19.2332c0.976311,0.976311 0.976311,2.55922 0,3.53553c-0.976311,0.976311 -2.55922,0.976311 -3.53553,0c-0.976311,-0.976311 -0.976311,-2.55922 -4.44089e-16,-3.53553c0.976311,-0.976311 2.55922,-0.976311 3.53553,0"></path>
        <path d="M11.5,5.5v13"></path>
        <path d="M3,18.501c0,-3.314 2.187,-6 5.5,-6h5.5c3.314,0 6,2.686 6,6"></path>
    </g>
    <path fill="none" d="M0,0h24v24h-24Z"></path>
</svg>