<?xml version="1.0" encoding="UTF-8"?>
<svg version="1.1" viewBox="0 0 24 24" xmlns="http://www.w3.org/2000/svg" xmlns:xlink="http://www.w3.org/1999/xlink">
    <!--Generated by IJSVG (https://github.com/iconjar/IJSVG)-->
    <g stroke-linecap="round" stroke-width="1" stroke="#FFF" fill="none" stroke-linejoin="round">
        <path d="M16.5,7.5v4.784l-5,3.216l-5,-3.216v-4.784"></path>
        <path d="M16.5,7.5l-5,3l-5,-3l5,-3Z"></path>
        <path d="M11.5,10.5v5"></path>
        <path d="M21.5,15.5v4.784l-5,3.216l-5,-3.216v-4.784"></path>
        <path d="M21.5,15.5l-5,3l-5,-3l5,-3.216Z"></path>
        <path d="M16.5,18.5v5"></path>
        <path d="M11.5,15.5v4.784l-5,3.216l-5,-3.216v-4.784"></path>
        <path d="M11.5,15.5l-5,3l-5,-3l5,-3.216Z"></path>
        <path d="M6.5,18.5v5"></path>
    </g>
    <path fill="none" d="M0,0h24v24h-24Z"></path>
</svg>