<?xml version="1.0" encoding="UTF-8"?>
<svg version="1.1" viewBox="0 0 24 24" xmlns="http://www.w3.org/2000/svg" xmlns:xlink="http://www.w3.org/1999/xlink">
    <!--Generated by IJSVG (https://github.com/iconjar/IJSVG)-->
    <g stroke-width="1" stroke="#FFF" fill="none" stroke-linejoin="round">
        <path d="M10.4749,6.52513c1.36684,1.36684 1.36684,3.58291 0,4.94975c-1.36684,1.36684 -3.58291,1.36684 -4.94975,1.77636e-15c-1.36684,-1.36684 -1.36684,-3.58291 -8.88178e-16,-4.94975c1.36684,-1.36684 3.58291,-1.36684 4.94975,-8.88178e-16"></path>
        <path d="M9.06066,7.93934c0.585786,0.585786 0.585786,1.53553 0,2.12132c-0.585786,0.585786 -1.53553,0.585786 -2.12132,0c-0.585786,-0.585786 -0.585786,-1.53553 0,-2.12132c0.585786,-0.585786 1.53553,-0.585786 2.12132,0"></path>
        <path d="M12.0607,14.9393c0.585786,0.585786 0.585786,1.53553 0,2.12132c-0.585786,0.585786 -1.53553,0.585786 -2.12132,0c-0.585786,-0.585786 -0.585786,-1.53553 0,-2.12132c0.585786,-0.585786 1.53553,-0.585786 2.12132,0"></path>
        <path d="M5.06066,14.9393c0.585786,0.585786 0.585786,1.53553 0,2.12132c-0.585786,0.585786 -1.53553,0.585786 -2.12132,0c-0.585786,-0.585786 -0.585786,-1.53553 -4.44089e-16,-2.12132c0.585786,-0.585786 1.53553,-0.585786 2.12132,0"></path>
        <path d="M8,5.5h9c1.934,0 3.5,1.568 3.5,3.5c0,1.934 -1.566,3.5 -3.5,3.5h-9"></path>
        <path d="M13.4749,13.5251c1.36684,1.36684 1.36684,3.58291 0,4.94975c-1.36684,1.36684 -3.58291,1.36684 -4.94975,0c-1.36684,-1.36684 -1.36684,-3.58291 -1.77636e-15,-4.94975c1.36684,-1.36684 3.58291,-1.36684 4.94975,-1.77636e-15"></path>
        <path d="M11,12.5h9c1.934,0 3.5,1.568 3.5,3.5c0,1.934 -1.566,3.5 -3.5,3.5h-9"></path>
        <path d="M6.47487,13.5251c1.36684,1.36684 1.36684,3.58291 0,4.94975c-1.36684,1.36684 -3.58291,1.36684 -4.94975,0c-1.36684,-1.36684 -1.36684,-3.58291 -8.88178e-16,-4.94975c1.36684,-1.36684 3.58291,-1.36684 4.94975,-1.77636e-15"></path>
        <path d="M11,19.5h-7"></path>
        <path d="M4,12.5h7"></path>
        <path stroke-linecap="round" d="M13.5,7.5h3"></path>
        <path stroke-linecap="round" d="M16.5,9.5h1"></path>
        <path stroke-linecap="round" d="M16.5,14.5h1"></path>
        <path stroke-linecap="round" d="M19.5,14.5h1"></path>
        <path stroke-linecap="round" d="M18.5,16.5h3"></path>
        <path stroke-linecap="round" d="M16,17.5h1"></path>
        <path stroke-linecap="round" d="M13.5,10.5h1"></path>
    </g>
    <path fill="none" d="M0,0h24v24h-24Z"></path>
</svg>