<?xml version="1.0" encoding="UTF-8"?>
<svg version="1.1" viewBox="0 0 24 24" xmlns="http://www.w3.org/2000/svg" xmlns:xlink="http://www.w3.org/1999/xlink">
    <!--Generated by IJSVG (https://github.com/iconjar/IJSVG)-->
    <path d="M21,14h-0.413l0.735,-0.617c0.211,-0.178 0.239,-0.493 0.061,-0.704c-0.176,-0.211 -0.492,-0.24 -0.705,-0.062l-2.678,2.249v-3.866h-5c-0.818,0 -1.544,0.393 -2,1l-1,2.5l-1.001,-2.502c-0.456,-0.606 -1.182,-0.998 -1.999,-0.998h-1v8c0,2.052 -1.232,3.729 -3,4.5v0.5h18v-0.5c-1.771,-0.77 -3,-2.445 -3,-4.5v-2.828l1.396,-1.172h1.604c0.276,0 0.5,-0.224 0.5,-0.5c0,-0.276 -0.224,-0.5 -0.5,-0.5Z" fill="#FFF"></path>
    <path fill="none" d="M0,0h24v24h-24Z"></path>
</svg>