<?xml version="1.0" encoding="UTF-8"?>
<svg version="1.1" viewBox="0 0 24 24" xmlns="http://www.w3.org/2000/svg" xmlns:xlink="http://www.w3.org/1999/xlink">
    <!--Generated by IJSVG (https://github.com/iconjar/IJSVG)-->
    <g stroke-linecap="round" stroke-width="1" stroke="#FFF" fill="none" stroke-linejoin="round">
        <path d="M12.4497,8.55025c2.73367,2.73367 2.73367,7.16582 0,9.89949c-2.73367,2.73367 -7.16582,2.73367 -9.89949,3.55271e-15c-2.73367,-2.73367 -2.73367,-7.16582 -1.77636e-15,-9.89949c2.73367,-2.73367 7.16582,-2.73367 9.89949,-1.77636e-15"></path>
        <path d="M7.5,6.5h9c3.866,0 7,3.134 7,7c0,3.866 -3.134,7 -7,7h-9"></path>
        <path d="M3.498,16.498c0.912,1.215 2.365,2.002 4.002,2.002c2.762,0 5,-2.238 5,-5c0,-2.762 -2.238,-5 -5,-5"></path>
        <path d="M7.5,16c-1.381,0 -2.5,-1.119 -2.5,-2.5c0,-1.381 1.119,-2.5 2.5,-2.5c0.561,0 1.079,0.185 1.496,0.496"></path>
        <path d="M7.5,13v1"></path>
        <path d="M22.83,10.5h-4.33"></path>
        <path d="M21,12.5h2.43"></path>
        <path d="M17,13.5h1.5"></path>
        <path d="M13.83,16.5h3.67"></path>
    </g>
    <path fill="none" d="M0,0h24v24h-24Z"></path>
</svg>