<?xml version="1.0" encoding="UTF-8"?>
<svg version="1.1" viewBox="0 0 24 24" xmlns="http://www.w3.org/2000/svg" xmlns:xlink="http://www.w3.org/1999/xlink">
    <!--Generated by IJSVG (https://github.com/iconjar/IJSVG)-->
    <g fill="#FFF">
        <path d="M17,4h-6.031c1.225,0.912 2.031,2.357 2.031,4c0,1.641 -0.806,3.088 -2.031,4h6.031c2.206,0 4,-1.794 4,-4c0,-2.205 -1.794,-4 -4,-4Zm-1,6h-1.5c-0.276,0 -0.5,-0.225 -0.5,-0.5c0,-0.277 0.224,-0.5 0.5,-0.5h1.5c0.276,0 0.5,0.223 0.5,0.5c0,0.275 -0.224,0.5 -0.5,0.5Zm-1.5,-3c-0.276,0 -0.5,-0.225 -0.5,-0.5c0,-0.277 0.224,-0.5 0.5,-0.5h3.5c0.276,0 0.5,0.223 0.5,0.5c0,0.275 -0.224,0.5 -0.5,0.5h-3.5Zm5,2h-2c-0.276,0 -0.5,-0.225 -0.5,-0.5c0,-0.277 0.224,-0.5 0.5,-0.5h2c0.276,0 0.5,0.223 0.5,0.5c0,0.275 -0.224,0.5 -0.5,0.5Z"></path>
        <path d="M8,4c-2.206,0 -4,1.795 -4,4c0,2.206 1.794,4 4,4c2.206,0 4,-1.794 4,-4c0,-2.205 -1.794,-4 -4,-4Zm0,6c-1.103,0 -2,-0.898 -2,-2c0,-1.102 0.897,-2 2,-2c1.102,0 2,0.898 2,2c0,1.102 -0.898,2 -2,2Z"></path>
        <path d="M21,18c-0.276,0 -0.5,-0.225 -0.5,-0.5c0,-0.277 0.224,-0.5 0.5,-0.5h3c0,-0.348 -0.059,-0.68 -0.143,-1h-1.857c-0.276,0 -0.5,-0.225 -0.5,-0.5c0,-0.277 0.224,-0.5 0.5,-0.5h1.443c-0.694,-1.189 -1.97,-2 -3.443,-2h-4.031c1.225,0.912 2.031,2.357 2.031,4c0,1.641 -0.806,3.088 -2.031,4h4.031c1.858,0 3.41,-1.279 3.857,-3h-2.857Zm-1.5,1h-0.5c-0.276,0 -0.5,-0.225 -0.5,-0.5c0,-0.277 0.224,-0.5 0.5,-0.5h0.5c0.276,0 0.5,0.223 0.5,0.5c0,0.275 -0.224,0.5 -0.5,0.5Zm0.5,-3h-1c-0.276,0 -0.5,-0.225 -0.5,-0.5c0,-0.277 0.224,-0.5 0.5,-0.5h1c0.276,0 0.5,0.223 0.5,0.5c0,0.275 -0.224,0.5 -0.5,0.5Z"></path>
        <path d="M4,13c-2.206,0 -4,1.795 -4,4c0,2.206 1.794,4 4,4c2.206,0 4,-1.794 4,-4c0,-2.205 -1.794,-4 -4,-4Zm0,6c-1.103,0 -2,-0.898 -2,-2c0,-1.102 0.897,-2 2,-2c1.102,0 2,0.898 2,2c0,1.102 -0.898,2 -2,2Z"></path>
        <path d="M8.502,19.143c-0.356,0.736 -0.883,1.373 -1.533,1.857h3.062c-0.65,-0.484 -1.175,-1.117 -1.529,-1.857Z"></path>
        <path d="M8.502,14.856c0.354,-0.736 0.879,-1.371 1.529,-1.856h-3.062c0.65,0.484 1.177,1.122 1.533,1.856Z"></path>
        <path d="M13,13c-2.206,0 -4,1.795 -4,4c0,2.206 1.794,4 4,4c2.206,0 4,-1.794 4,-4c0,-2.205 -1.794,-4 -4,-4Zm0,6c-1.103,0 -2,-0.898 -2,-2c0,-1.102 0.897,-2 2,-2c1.102,0 2,0.898 2,2c0,1.102 -0.898,2 -2,2Z"></path>
    </g>
    <path fill="none" d="M0,0h24v24h-24Z"></path>
</svg>