<?xml version="1.0" encoding="UTF-8"?>
<svg version="1.1" viewBox="0 0 24 24" xmlns="http://www.w3.org/2000/svg" xmlns:xlink="http://www.w3.org/1999/xlink">
    <!--Generated by IJSVG (https://github.com/iconjar/IJSVG)-->
    <g fill="#FFF">
        <path d="M21,12c-0.276,0 -0.5,-0.224 -0.5,-0.5c0,-0.276 0.224,-0.5 0.5,-0.5h1.818c-0.082,-0.344 -0.186,-0.68 -0.32,-1h-3.998c-0.276,0 -0.5,-0.224 -0.5,-0.5c0,-0.276 0.224,-0.5 0.5,-0.5h3.469c-1.157,-1.801 -3.174,-3 -5.469,-3h-5.274c2.251,1.296 3.774,3.721 3.774,6.5c0,0.877 -0.159,1.717 -0.438,2.5h2.938c0.276,0 0.5,0.224 0.5,0.5c0,0.276 -0.224,0.5 -0.5,0.5h-3.372c-0.665,1.254 -1.675,2.294 -2.903,3h5.275c3.584,0 6.5,-2.916 6.5,-6.5c0,-0.169 -0.013,-0.334 -0.025,-0.5h-1.975Zm-2.5,1h-1.5c-0.276,0 -0.5,-0.224 -0.5,-0.5c0,-0.276 0.224,-0.5 0.5,-0.5h1.5c0.276,0 0.5,0.224 0.5,0.5c0,0.276 -0.224,0.5 -0.5,0.5Z"></path>
        <path d="M7.5,6c-3.584,0 -6.5,2.916 -6.5,6.5c0,3.584 2.916,6.5 6.5,6.5c3.584,0 6.5,-2.916 6.5,-6.5c0,-3.584 -2.916,-6.5 -6.5,-6.5Zm0,3.5c0.654,0 1.275,0.206 1.796,0.597c0.221,0.166 0.266,0.479 0.1,0.7c-0.165,0.221 -0.479,0.267 -0.7,0.101c-0.346,-0.26 -0.76,-0.398 -1.196,-0.398c-1.103,0 -2,0.898 -2,2c0,1.102 0.897,2 2,2c0.276,0 0.5,0.224 0.5,0.5c0,0.276 -0.224,0.5 -0.5,0.5c-1.654,0 -3,-1.346 -3,-3c0,-1.654 1.346,-3 3,-3Zm0.5,2.5v1c0,0.276 -0.224,0.5 -0.5,0.5c-0.276,0 -0.5,-0.224 -0.5,-0.5v-1c0,-0.276 0.224,-0.5 0.5,-0.5c0.276,0 0.5,0.224 0.5,0.5Zm-0.5,6c-1.748,0 -3.352,-0.803 -4.402,-2.202c-0.165,-0.221 -0.121,-0.534 0.1,-0.7c0.223,-0.165 0.536,-0.12 0.7,0.101c0.859,1.144 2.172,1.801 3.602,1.801c2.481,0 4.5,-2.019 4.5,-4.5c0,-2.481 -2.019,-4.5 -4.5,-4.5c-0.276,0 -0.5,-0.224 -0.5,-0.5c0,-0.276 0.224,-0.5 0.5,-0.5c3.033,0 5.5,2.468 5.5,5.5c0,3.032 -2.467,5.5 -5.5,5.5Z"></path>
    </g>
    <path fill="none" d="M0,0h24v24h-24Z"></path>
</svg>