<svg id="Layer_2" data-name="Layer 2" xmlns="http://www.w3.org/2000/svg" viewBox="0 0 512 512"><defs><style>.cls-1{fill:#24354a;}.cls-2{fill:#34c8a3;}.cls-3{fill:#45f6b8;}</style></defs><polygon class="cls-1" points="61.01 143.42 61.01 368.58 256 481.16 451 368.58 451 143.42 256 30.84 61.01 143.42"/><polygon class="cls-2" points="100.58 153.28 256 63.55 411.42 153.28 440 136.73 256 30.49 72 136.73 100.58 153.28"/><polygon class="cls-2" points="451 143.07 451 143.07 451 143.07 451 143.07"/><polygon class="cls-2" points="422.67 172.19 422.67 352.22 267 442.1 267 474.47 451 368.24 451 155.79 422.67 172.19"/><polygon class="cls-2" points="245 442.1 89.33 352.22 89.33 172.19 61.01 155.79 61.01 368.24 245 474.47 245 442.1"/><polygon class="cls-2" points="256 480.82 256 480.82 256 480.82 256 480.82"/><path class="cls-3" d="M264.16,420.87a27.55,27.55,0,0,1-27.51-27.52V247.83h18V393.35a9.51,9.51,0,1,0,19,0V241.71h18V393.35A27.55,27.55,0,0,1,264.16,420.87Z"/><path class="cls-3" d="M197.61,285.12a9,9,0,0,1-4.78-1.37c-27.08-16.82-43.28-46.47-43.33-79.32-.05-34.6,17.14-66,46-84.06a9,9,0,0,1,12.14,2.47s7.84,10.57,26.6,19.22c17.54,8.09,48.51,16.15,96.42,8.59a9,9,0,0,1,10.4,8.89v85a9,9,0,0,1-10.4,8.89c-26.51-4.18-65-6.07-97.91,8.67-19.48,8.73-27.94,19.36-28,19.46A8.88,8.88,0,0,1,197.61,285.12Zm1.26-145.23C179.06,155,167.46,178.63,167.5,204.4c0,24.46,10.47,45.93,28.86,60C210,251.65,248.27,225.22,323,234.23V169.88a245.79,245.79,0,0,1-29.28,1.83C239,171.71,210.3,151,198.87,139.89Z"/><path class="cls-3" d="M209.91,266.05c-29.35-35.43-28.81-93.05,1.22-128.43l13.72,11.65C213,163.2,206.41,181.92,206.22,202s6,38.7,17.55,52.6Z"/></svg>